HIERARCHY
ROOT Hips
{
	OFFSET 0.000000 0.000000 0.000000 
	CHANNELS 6 Xposition Yposition Zposition Zrotation Yrotation Xrotation
	JOINT LeftUpLeg
	{
		OFFSET 1.363060 -1.794630 0.839290 
		CHANNELS 3 Zrotation Yrotation Xrotation
		JOINT LeftLeg
		{
			OFFSET 2.448110 -6.726130 0.000000 
			CHANNELS 3 Zrotation Yrotation Xrotation
			JOINT LeftFoot
			{
				OFFSET 2.562200 -7.039590 0.000000 
				CHANNELS 3 Zrotation Yrotation Xrotation
				JOINT LeftToeBase
				{
					OFFSET 0.157640 -0.433110 2.322550 
					CHANNELS 3 Zrotation Yrotation Xrotation
					End Site
					{
						OFFSET 0.000000 0.000000 0.000000 
					}
				}
			}
		}
	}
	JOINT RightUpLeg
	{
		OFFSET -1.305520 -1.794630 0.839290 
		CHANNELS 3 Zrotation Yrotation Xrotation
		JOINT RightLeg
		{
			OFFSET -2.542530 -6.985550 0.000000 
			CHANNELS 3 Zrotation Yrotation Xrotation
			JOINT RightFoot
			{
				OFFSET -2.568260 -7.056230 0.000000 
				CHANNELS 3 Zrotation Yrotation Xrotation
				JOINT RightToeBase
				{
					OFFSET -0.164730 -0.452590 2.363150 
					CHANNELS 3 Zrotation Yrotation Xrotation
					End Site
					{
						OFFSET 0.000000 0.000000 0.000000 
					}
				}
			}
		}
	}
	JOINT Spine
	{
		OFFSET 0.028270 2.035590 -0.193380 
		CHANNELS 3 Zrotation Yrotation Xrotation
		JOINT Spine1
		{
			OFFSET 0.056720 2.048850 -0.042750 
			CHANNELS 3 Zrotation Yrotation Xrotation
			JOINT Neck1
			{
				OFFSET -0.054170 1.746240 0.172020 
				CHANNELS 3 Zrotation Yrotation Xrotation
				JOINT Head
				{
					OFFSET 0.104070 1.761360 -0.123970 
					CHANNELS 3 Zrotation Yrotation Xrotation
					End Site
					{
						OFFSET 0.000000 0.000000 0.000000 
					}
				}
			}
			JOINT LeftArm
			{
				OFFSET 3.362410 1.200890 -0.311210 
				CHANNELS 3 Zrotation Yrotation Xrotation
				JOINT LeftForeArm
				{
					OFFSET 4.983000 -0.000000 -0.000000 
					CHANNELS 3 Zrotation Yrotation Xrotation
					JOINT LeftHand
					{
						OFFSET 3.483560 -0.000000 -0.000000 
						CHANNELS 3 Zrotation Yrotation Xrotation
						JOINT LeftHandIndex1
						{
							OFFSET 0.715260 -0.000000 -0.000000 
							CHANNELS 3 Zrotation Yrotation Xrotation
							End Site
							{
								OFFSET 0.000000 0.000000 0.000000 
							}
						}
					}
				}
			}
			JOINT RightArm
			{
				OFFSET -3.136600 1.374050 -0.404650 
				CHANNELS 3 Zrotation Yrotation Xrotation
				JOINT RightForeArm
				{
					OFFSET -5.241900 -0.000000 -0.000000 
					CHANNELS 3 Zrotation Yrotation Xrotation
					JOINT RightHand
					{
						OFFSET -3.444170 -0.000000 -0.000000 
						CHANNELS 3 Zrotation Yrotation Xrotation
						JOINT RightHandIndex1
						{
							OFFSET -0.622530 -0.000000 -0.000000 
							CHANNELS 3 Zrotation Yrotation Xrotation
							End Site
							{
								OFFSET 0.000000 0.000000 0.000000 
							}
						}
					}
				}
			}
		}
	}
}
MOTION
Frames: 13
Frame Time: 0.041667
5.053689 17.341532 -16.045175 5.620629 -27.959147 1.967560 -25.800931 20.436383 -0.508300 0.321023 7.971267 21.891954 1.837641 -7.625499 2.247822 0.571500 -4.841200 -13.456300 7.468920 11.092463 -32.547781 -0.732963 -12.562398 29.100717 3.309563 -14.470470 -11.753090 -0.322100 3.648200 -10.088900 1.941261 -2.688908 -0.380039 0.730034 -1.435097 -2.551130 2.678378 1.968216 3.969654 -3.216300 1.005300 -4.522900 -81.751694 15.305646 26.019172 142.966159 -43.532031 -107.111708 -0.584869 -1.330905 -4.651149 -7.125000 0.000000 0.000000 72.014686 -3.937292 34.234455 -136.515492 47.175632 -102.097055 -0.028387 1.114741 17.069028 7.125000 0.000000 0.000000 
4.957634 17.368268 -15.949013 5.691240 -28.082909 2.165228 -25.632375 20.537802 -0.872021 0.412317 8.201652 22.574596 1.800299 -7.435337 3.190157 0.608600 -4.993200 -13.889300 7.684303 10.739855 -32.570746 -0.779033 -12.601323 29.281053 3.342781 -14.540075 -11.561074 -0.297100 3.504700 -9.687300 1.947748 -2.651109 -0.402303 0.726937 -1.415578 -2.594741 2.624184 1.996108 3.864712 -3.251500 1.009900 -4.548300 -81.710650 15.214774 25.996238 142.891722 -43.582413 -107.066487 -0.584653 -1.327304 -4.545828 -7.125000 0.000000 0.000000 71.998945 -3.887873 34.278587 -136.456502 47.201952 -102.057952 -0.030718 1.116936 17.117418 7.125000 0.000000 0.000000 
4.860071 17.395758 -15.854252 5.763088 -28.163496 2.362602 -25.442840 20.688506 -1.412676 0.543394 8.517548 23.503969 1.770316 -7.272253 4.232437 0.631000 -5.082800 -14.144800 7.898993 10.368533 -32.574714 -0.819954 -12.625243 29.426934 3.387273 -14.640348 -11.358151 -0.266100 3.318400 -9.166500 1.956529 -2.622865 -0.423112 0.740694 -1.401361 -2.632097 2.577530 2.009641 3.765779 -3.280400 1.008000 -4.572500 -81.683897 15.066106 25.976394 142.801039 -43.640514 -107.011361 -0.581068 -1.325095 -4.408512 -7.125000 0.000000 0.000000 71.972115 -3.859741 34.306237 -136.421365 47.216382 -102.036470 -0.032610 1.118129 17.149887 7.125000 0.000000 0.000000 
4.760998 17.424434 -15.761001 5.830448 -28.194872 2.558099 -25.227081 20.874805 -2.116359 0.717920 8.913471 24.670782 1.743109 -7.098929 5.371766 0.640600 -5.120600 -14.252700 8.115310 9.988666 -32.552729 -0.853898 -12.632193 29.530760 3.439929 -14.758830 -11.120972 -0.233000 3.107000 -8.576700 1.966971 -2.605006 -0.443766 0.760846 -1.392445 -2.671217 2.537658 2.009324 3.677431 -3.307200 0.999800 -4.591700 -81.671994 14.863961 25.957767 142.694537 -43.705674 -106.947503 -0.576181 -1.323443 -4.256768 -7.125000 0.000000 0.000000 71.946819 -3.855227 34.314302 -136.406822 47.219971 -102.030134 -0.033728 1.117845 17.160913 7.125000 0.000000 0.000000 
4.660308 17.454296 -15.669474 5.885261 -28.172639 2.749581 -24.973673 21.088995 -2.964147 0.940155 9.381947 26.062351 1.715801 -6.889777 6.607543 0.632300 -5.087800 -14.159200 8.337078 9.620876 -32.496700 -0.880345 -12.624731 29.596352 3.493138 -14.874400 -10.848707 -0.199900 2.878700 -7.941100 1.977860 -2.594878 -0.465520 0.772727 -1.387335 -2.722434 2.505733 1.993820 3.601941 -3.332600 0.984400 -4.604400 -81.643216 14.630324 25.973449 142.592301 -43.761665 -106.887332 -0.569612 -1.322693 -4.140520 -7.125000 0.000000 0.000000 71.933207 -3.883134 34.293877 -136.414106 47.210471 -102.040590 -0.033842 1.115895 17.142651 7.125000 0.000000 0.000000 
4.558324 17.484050 -15.579781 5.929784 -28.103829 2.926299 -24.689464 21.313100 -3.923132 1.215307 9.914997 27.663678 1.684843 -6.619331 7.889289 0.605200 -4.979800 -13.851000 8.564333 9.275929 -32.402262 -0.901907 -12.607410 29.636273 3.541978 -14.972279 -10.531347 -0.170100 2.656800 -7.324600 1.989225 -2.596233 -0.489865 0.782362 -1.387925 -2.798095 2.483754 1.973387 3.541563 -3.354900 0.967300 -4.608400 -81.570222 14.403109 26.029573 142.512177 -43.795767 -106.843443 -0.564863 -1.321201 -4.062855 -7.125000 0.000000 0.000000 71.926129 -3.943329 34.264270 -136.439602 47.188875 -102.064882 -0.033818 1.113507 17.097349 7.125000 0.000000 0.000000 
4.455047 17.512834 -15.492027 5.964601 -27.996104 3.079675 -24.377163 21.538866 -4.962465 1.548470 10.503607 29.458860 1.649646 -6.291269 9.156022 0.557700 -4.783600 -13.292300 8.796660 8.965486 -32.268317 -0.921283 -12.586529 29.667623 3.581272 -15.039456 -10.176966 -0.145300 2.456100 -6.768000 1.999397 -2.607271 -0.516018 0.779019 -1.393058 -2.897612 2.472971 1.949510 3.495457 -3.372900 0.949000 -4.603900 -81.435305 14.201282 26.131044 142.472201 -43.795232 -106.827500 -0.560392 -1.319716 -4.056942 -7.125000 0.000000 0.000000 71.933905 -4.025275 34.222991 -136.474848 47.158930 -102.097518 -0.034264 1.111290 17.026102 7.125000 0.000000 0.000000 
4.351123 17.539462 -15.406214 5.991405 -27.863268 3.204673 -24.043360 21.757092 -6.052124 1.943899 11.136933 31.429083 1.609816 -5.922487 10.338232 0.491800 -4.496400 -12.477700 9.032819 8.699192 -32.099367 -0.941889 -12.568684 29.707569 3.612006 -15.082404 -9.801912 -0.125500 2.283300 -6.289400 2.007653 -2.628219 -0.543822 0.761463 -1.402917 -3.023577 2.473421 1.928620 3.461474 -3.384700 0.932800 -4.591900 -81.253115 14.025119 26.248885 142.466553 -43.765615 -106.836720 -0.557085 -1.317407 -4.112495 -7.125000 0.000000 0.000000 71.948788 -4.122858 34.186662 -136.517438 47.121324 -102.135995 -0.034491 1.109277 16.934011 7.125000 0.000000 0.000000 
4.247091 17.563395 -15.322665 6.009271 -27.725892 3.304658 -23.696675 21.949494 -7.168538 2.404408 11.804195 33.554094 1.561199 -5.515096 11.353699 0.418300 -4.151500 -11.503300 9.277359 8.475887 -31.910896 -0.965931 -12.559011 29.768320 3.635187 -15.106690 -9.412423 -0.108400 2.122600 -5.844500 2.016583 -2.652940 -0.569864 0.756758 -1.415563 -3.159123 2.483434 1.913165 3.434224 -3.388900 0.919900 -4.576100 -81.042813 13.870777 26.370504 142.501474 -43.701688 -106.875007 -0.555228 -1.313919 -4.208315 -7.125000 0.000000 0.000000 71.944586 -4.214656 34.163266 -136.561600 47.081972 -102.176081 -0.035256 1.108211 16.825808 7.125000 0.000000 0.000000 
4.143490 17.583986 -15.241596 6.012769 -27.597528 3.386144 -23.341159 22.106024 -8.299950 2.932097 12.494121 35.814570 1.496954 -5.060476 12.118042 0.350100 -3.801700 -10.519400 9.534983 8.292926 -31.718890 -0.995153 -12.561219 29.857467 3.658724 -15.137658 -9.018138 -0.092800 1.964800 -5.408400 2.025530 -2.673100 -0.592100 0.757577 -1.426759 -3.293031 2.498169 1.898662 3.409241 -3.389800 0.907800 -4.561000 -80.825178 13.708883 26.475048 142.557727 -43.618790 -106.929982 -0.552573 -1.310190 -4.332527 -7.125000 0.000000 0.000000 71.922180 -4.286669 34.145071 -136.600906 47.045309 -102.213677 -0.036433 1.107714 16.706794 7.125000 0.000000 0.000000 
4.040859 17.601127 -15.162683 5.991419 -27.486908 3.460503 -22.975290 22.207068 -9.429337 3.524553 13.194899 38.191642 1.419721 -4.609805 12.585152 0.287400 -3.447900 -9.528300 9.817234 8.139472 -31.534845 -1.029955 -12.576275 29.976842 3.685101 -15.184211 -8.623523 -0.077000 1.790200 -4.926300 2.036033 -2.685410 -0.608952 0.772567 -1.435343 -3.415564 2.517730 1.885487 3.383725 -3.383700 0.896800 -4.549300 -80.642300 13.512313 26.539337 142.620048 -43.527978 -106.991641 -0.549271 -1.305954 -4.462524 -7.125000 0.000000 0.000000 71.868818 -4.327047 34.132618 -136.635041 47.012508 -102.248938 -0.038332 1.108241 16.578715 7.125000 0.000000 0.000000 
3.939846 17.614818 -15.086141 5.947493 -27.406549 3.529210 -22.607959 22.240853 -10.550012 4.177970 13.896657 40.669916 1.333398 -4.211475 12.723069 0.240700 -3.157200 -8.716800 10.125392 8.005399 -31.368203 -1.070592 -12.604151 30.124844 3.717903 -15.255766 -8.212130 -0.061700 1.602900 -4.409500 2.047587 -2.683983 -0.620102 0.800175 -1.438398 -3.526835 2.538325 1.871258 3.356199 -3.374400 0.885700 -4.543200 -80.489883 13.286256 26.569852 142.686659 -43.431672 -107.057696 -0.545503 -1.300994 -4.581519 -7.125000 0.000000 0.000000 71.788454 -4.332661 34.122313 -136.660382 46.985865 -102.279081 -0.040432 1.109274 16.456153 7.125000 0.000000 0.000000 
3.840773 17.625706 -15.011648 5.879151 -27.357642 3.595946 -22.240583 22.176587 -11.656141 4.884595 14.590931 43.236400 1.251621 -3.947058 12.578041 0.207700 -2.934600 -8.096800 10.462930 7.874858 -31.224379 -1.116542 -12.642706 30.296977 3.755449 -15.346910 -7.768978 -0.047100 1.400500 -3.851400 2.060064 -2.666567 -0.625759 0.836952 -1.434695 -3.627019 2.557212 1.854332 3.329500 -3.363000 0.874200 -4.541400 -80.361532 13.041145 26.581744 142.761686 -43.327629 -107.129315 -0.541294 -1.295263 -4.685479 -7.125000 0.000000 0.000000 71.678172 -4.304310 34.107182 -136.676233 46.966033 -102.304264 -0.043167 1.110923 16.343849 7.125000 0.000000 0.000000 
